<svg width="359" height="65" viewBox="0 0 359 65" fill="none" xmlns="http://www.w3.org/2000/svg">
<g clip-path="url(#clip0_1_3637)">
<path d="M0 8.22498C0 3.8067 3.58172 0.224976 8 0.224976H56C60.4183 0.224976 64 3.8067 64 8.22498V56.225C64 60.6433 60.4183 64.225 56 64.225H8C3.58172 64.225 0 60.6433 0 56.225V8.22498Z" fill="#E9E9E9"/>
<g opacity="0.3">
<path d="M39.9652 36.2052L37.3433 30.0819C36.4554 28.0045 34.822 27.9207 33.7246 29.8976L32.1414 32.754C31.3373 34.2032 29.8379 34.3288 28.7992 33.0304L28.6149 32.7959C27.5343 31.4389 26.0097 31.6064 25.2307 33.1561L23.7899 36.046C22.7764 38.0564 24.2423 40.427 26.4872 40.427H37.1758C39.3537 40.427 40.8196 38.2072 39.9652 36.2052Z" stroke="#171717" stroke-width="1.25649" stroke-linecap="round" stroke-linejoin="round"/>
<path d="M27.6431 28.6997C29.031 28.6997 30.1561 27.5746 30.1561 26.1868C30.1561 24.7989 29.031 23.6738 27.6431 23.6738C26.2552 23.6738 25.1301 24.7989 25.1301 26.1868C25.1301 27.5746 26.2552 28.6997 27.6431 28.6997Z" stroke="#171717" stroke-width="1.25649" stroke-linecap="round" stroke-linejoin="round"/>
</g>
</g>
<path d="M8 0.724976H56C60.1421 0.724976 63.5 4.08284 63.5 8.22498V56.225C63.5 60.3671 60.1421 63.725 56 63.725H8C3.85786 63.725 0.5 60.3671 0.5 56.225V8.22498C0.5 4.08284 3.85786 0.724976 8 0.724976Z" stroke="#E0E0E0"/>
<g clip-path="url(#clip1_1_3637)">
<path d="M72 8.22498C72 3.8067 75.5817 0.224976 80 0.224976H128C132.418 0.224976 136 3.8067 136 8.22498V56.225C136 60.6433 132.418 64.225 128 64.225H80C75.5817 64.225 72 60.6433 72 56.225V8.22498Z" fill="#E9E9E9"/>
<g opacity="0.3">
<path d="M111.965 36.2052L109.343 30.0819C108.455 28.0045 106.822 27.9207 105.725 29.8976L104.141 32.754C103.337 34.2032 101.838 34.3288 100.799 33.0304L100.615 32.7959C99.5343 31.4389 98.0097 31.6064 97.2307 33.1561L95.7899 36.046C94.7764 38.0564 96.2423 40.427 98.4872 40.427H109.176C111.354 40.427 112.82 38.2072 111.965 36.2052Z" stroke="#171717" stroke-width="1.25649" stroke-linecap="round" stroke-linejoin="round"/>
<path d="M99.6431 28.6997C101.031 28.6997 102.156 27.5746 102.156 26.1868C102.156 24.7989 101.031 23.6738 99.6431 23.6738C98.2552 23.6738 97.1301 24.7989 97.1301 26.1868C97.1301 27.5746 98.2552 28.6997 99.6431 28.6997Z" stroke="#171717" stroke-width="1.25649" stroke-linecap="round" stroke-linejoin="round"/>
</g>
</g>
<path d="M80 0.724976H128C132.142 0.724976 135.5 4.08284 135.5 8.22498V56.225C135.5 60.3671 132.142 63.725 128 63.725H80C75.8579 63.725 72.5 60.3671 72.5 56.225V8.22498C72.5 4.08284 75.8579 0.724976 80 0.724976Z" stroke="#E0E0E0"/>
<g clip-path="url(#clip2_1_3637)">
<path d="M144 8.22498C144 3.8067 147.582 0.224976 152 0.224976H200C204.418 0.224976 208 3.8067 208 8.22498V56.225C208 60.6433 204.418 64.225 200 64.225H152C147.582 64.225 144 60.6433 144 56.225V8.22498Z" fill="#E9E9E9"/>
<g opacity="0.3">
<path d="M183.965 36.2052L181.343 30.0819C180.455 28.0045 178.822 27.9207 177.725 29.8976L176.141 32.754C175.337 34.2032 173.838 34.3288 172.799 33.0304L172.615 32.7959C171.534 31.4389 170.01 31.6064 169.231 33.1561L167.79 36.046C166.776 38.0564 168.242 40.427 170.487 40.427H181.176C183.354 40.427 184.82 38.2072 183.965 36.2052Z" stroke="#171717" stroke-width="1.25649" stroke-linecap="round" stroke-linejoin="round"/>
<path d="M171.643 28.6997C173.031 28.6997 174.156 27.5746 174.156 26.1868C174.156 24.7989 173.031 23.6738 171.643 23.6738C170.255 23.6738 169.13 24.7989 169.13 26.1868C169.13 27.5746 170.255 28.6997 171.643 28.6997Z" stroke="#171717" stroke-width="1.25649" stroke-linecap="round" stroke-linejoin="round"/>
</g>
</g>
<path d="M152 0.724976H200C204.142 0.724976 207.5 4.08284 207.5 8.22498V56.225C207.5 60.3671 204.142 63.725 200 63.725H152C147.858 63.725 144.5 60.3671 144.5 56.225V8.22498C144.5 4.08284 147.858 0.724976 152 0.724976Z" stroke="#E0E0E0"/>
<g clip-path="url(#clip3_1_3637)">
<path d="M216 8.22498C216 3.8067 219.582 0.224976 224 0.224976H272C276.418 0.224976 280 3.8067 280 8.22498V56.225C280 60.6433 276.418 64.225 272 64.225H224C219.582 64.225 216 60.6433 216 56.225V8.22498Z" fill="#E9E9E9"/>
<g opacity="0.3">
<path d="M255.965 36.2052L253.343 30.0819C252.455 28.0045 250.822 27.9207 249.725 29.8976L248.141 32.754C247.337 34.2032 245.838 34.3288 244.799 33.0304L244.615 32.7959C243.534 31.4389 242.01 31.6064 241.231 33.1561L239.79 36.046C238.776 38.0564 240.242 40.427 242.487 40.427H253.176C255.354 40.427 256.82 38.2072 255.965 36.2052Z" stroke="#171717" stroke-width="1.25649" stroke-linecap="round" stroke-linejoin="round"/>
<path d="M243.643 28.6997C245.031 28.6997 246.156 27.5746 246.156 26.1868C246.156 24.7989 245.031 23.6738 243.643 23.6738C242.255 23.6738 241.13 24.7989 241.13 26.1868C241.13 27.5746 242.255 28.6997 243.643 28.6997Z" stroke="#171717" stroke-width="1.25649" stroke-linecap="round" stroke-linejoin="round"/>
</g>
</g>
<path d="M224 0.724976H272C276.142 0.724976 279.5 4.08284 279.5 8.22498V56.225C279.5 60.3671 276.142 63.725 272 63.725H224C219.858 63.725 216.5 60.3671 216.5 56.225V8.22498C216.5 4.08284 219.858 0.724976 224 0.724976Z" stroke="#E0E0E0"/>
<g clip-path="url(#clip4_1_3637)">
<path d="M288 8.22498C288 3.8067 291.582 0.224976 296 0.224976H344C348.418 0.224976 352 3.8067 352 8.22498V56.225C352 60.6433 348.418 64.225 344 64.225H296C291.582 64.225 288 60.6433 288 56.225V8.22498Z" fill="#E9E9E9"/>
<g opacity="0.3">
<path d="M327.965 36.2052L325.343 30.0819C324.455 28.0045 322.822 27.9207 321.725 29.8976L320.141 32.754C319.337 34.2032 317.838 34.3288 316.799 33.0304L316.615 32.7959C315.534 31.4389 314.01 31.6064 313.231 33.1561L311.79 36.046C310.776 38.0564 312.242 40.427 314.487 40.427H325.176C327.354 40.427 328.82 38.2072 327.965 36.2052Z" stroke="#171717" stroke-width="1.25649" stroke-linecap="round" stroke-linejoin="round"/>
<path d="M315.643 28.6997C317.031 28.6997 318.156 27.5746 318.156 26.1868C318.156 24.7989 317.031 23.6738 315.643 23.6738C314.255 23.6738 313.13 24.7989 313.13 26.1868C313.13 27.5746 314.255 28.6997 315.643 28.6997Z" stroke="#171717" stroke-width="1.25649" stroke-linecap="round" stroke-linejoin="round"/>
</g>
</g>
<path d="M296 0.724976H344C348.142 0.724976 351.5 4.08284 351.5 8.22498V56.225C351.5 60.3671 348.142 63.725 344 63.725H296C291.858 63.725 288.5 60.3671 288.5 56.225V8.22498C288.5 4.08284 291.858 0.724976 296 0.724976Z" stroke="#E0E0E0"/>
<defs>
<clipPath id="clip0_1_3637">
<path d="M0 8.22498C0 3.8067 3.58172 0.224976 8 0.224976H56C60.4183 0.224976 64 3.8067 64 8.22498V56.225C64 60.6433 60.4183 64.225 56 64.225H8C3.58172 64.225 0 60.6433 0 56.225V8.22498Z" fill="white"/>
</clipPath>
<clipPath id="clip1_1_3637">
<path d="M72 8.22498C72 3.8067 75.5817 0.224976 80 0.224976H128C132.418 0.224976 136 3.8067 136 8.22498V56.225C136 60.6433 132.418 64.225 128 64.225H80C75.5817 64.225 72 60.6433 72 56.225V8.22498Z" fill="white"/>
</clipPath>
<clipPath id="clip2_1_3637">
<path d="M144 8.22498C144 3.8067 147.582 0.224976 152 0.224976H200C204.418 0.224976 208 3.8067 208 8.22498V56.225C208 60.6433 204.418 64.225 200 64.225H152C147.582 64.225 144 60.6433 144 56.225V8.22498Z" fill="white"/>
</clipPath>
<clipPath id="clip3_1_3637">
<path d="M216 8.22498C216 3.8067 219.582 0.224976 224 0.224976H272C276.418 0.224976 280 3.8067 280 8.22498V56.225C280 60.6433 276.418 64.225 272 64.225H224C219.582 64.225 216 60.6433 216 56.225V8.22498Z" fill="white"/>
</clipPath>
<clipPath id="clip4_1_3637">
<path d="M288 8.22498C288 3.8067 291.582 0.224976 296 0.224976H344C348.418 0.224976 352 3.8067 352 8.22498V56.225C352 60.6433 348.418 64.225 344 64.225H296C291.582 64.225 288 60.6433 288 56.225V8.22498Z" fill="white"/>
</clipPath>
</defs>
</svg>
