<svg width="185" height="37" viewBox="0 0 185 37" fill="none" xmlns="http://www.w3.org/2000/svg">
<g clip-path="url(#clip0_1_9230)">
<path d="M2.48 12.55C4.42 9.85 7.08 8.5 10.19 8.5C15.85 8.5 20.24 13.14 20.24 18.66C20.24 24.18 15.97 28.89 10.27 28.89C7.24 28.89 4.61 27.65 2.49 25.09V35.5H0V9H2.48V12.54V12.55ZM2.3 18.79C2.3 23.61 6.03 26.61 10.01 26.61C14.32 26.61 17.68 22.96 17.68 18.72C17.68 14.48 14.47 10.9 10.01 10.9C5.55 10.9 2.3 14.3 2.3 18.79Z" fill="#D92D27"/>
<path d="M25.06 18.9C25.17 23.36 28.2 26.61 32.37 26.61C36.54 26.61 38.36 24.31 39.79 21.97L41.87 23.07C39.9 26.94 36.87 28.88 32.63 28.88C26.2 28.88 22.51 23.95 22.51 18.76C22.51 13.57 26.42 8.49 32.48 8.49C38 8.49 42.45 12.47 42.53 18.9H25.07H25.06ZM39.78 16.71C38.76 12.69 35.87 10.9 32.51 10.9C29.15 10.9 26.45 12.76 25.31 16.71H39.78Z" fill="#D92D27"/>
<path d="M48.22 12.55C50.16 9.85 52.82 8.5 55.93 8.5C61.59 8.5 65.98 13.14 65.98 18.66C65.98 24.18 61.71 28.89 56.01 28.89C52.98 28.89 50.35 27.65 48.23 25.09V35.5H45.75V9H48.23V12.54L48.22 12.55ZM48.03 18.79C48.03 23.61 51.76 26.61 55.74 26.61C60.05 26.61 63.41 22.96 63.41 18.72C63.41 14.48 60.2 10.9 55.74 10.9C51.28 10.9 48.03 14.3 48.03 18.79Z" fill="#D92D27"/>
<path d="M83.17 26.36C81.45 28.04 79.63 28.92 77.18 28.92C72.25 28.92 67.94 24.68 67.94 18.73C67.94 12.78 72.03 8.5 77.07 8.5C79.41 8.5 81.42 9.38 83.17 11.13V9.01H88.03V28.41H83.17V26.36ZM72.83 18.68C72.83 22 75.02 24.45 78.05 24.45C81.08 24.45 83.38 22.19 83.38 18.64C83.38 15.09 81.12 12.94 78.05 12.94C74.98 12.94 72.83 15.5 72.83 18.68Z" fill="#D92D27"/>
<path d="M110.68 25.63C110.68 29.39 109.95 31.91 107.72 33.81C105.97 35.27 103.63 35.97 100.67 35.97C95.34 35.97 91.94 33.89 90.62 29.83H95.99C96.98 31 98.44 31.51 100.48 31.51C102.27 31.51 103.73 31.04 104.61 30.23C105.78 29.13 105.82 27.82 105.82 25.99C104.21 27.56 102.46 28.4 99.94 28.4C94.72 28.4 90.62 24.24 90.62 18.43C90.62 12.62 94.75 8.49 99.68 8.49C102.09 8.49 103.99 9.4 105.82 11.12V9H110.68V25.62V25.63ZM95.52 18.47C95.52 21.68 97.82 23.95 100.85 23.95C103.88 23.95 106.07 21.79 106.07 18.51C106.07 15.23 103.99 12.96 100.77 12.96C97.55 12.96 95.51 15.48 95.51 18.48L95.52 18.47Z" fill="#D92D27"/>
<path d="M158.21 11.45C159.12 9.44 160.69 8.49 162.3 8.49C163.32 8.49 163.94 8.78 164.42 9L162.92 13.16C162.56 12.98 162.01 12.76 161.5 12.76C160.11 12.76 159.02 14.37 158.91 17.22C158.87 18.28 158.87 19.48 158.87 20.54V28.39H154.01V9H158.21V11.45Z" fill="#D92D27"/>
<path d="M179.72 26.36C178 28.04 176.18 28.92 173.73 28.92C168.8 28.92 164.49 24.68 164.49 18.73C164.49 12.78 168.58 8.5 173.62 8.5C175.96 8.5 177.97 9.38 179.72 11.13V9.01H184.58V28.41H179.72V26.36ZM169.38 18.68C169.38 22 171.57 24.45 174.6 24.45C177.63 24.45 179.93 22.19 179.93 18.64C179.93 15.09 177.66 12.94 174.6 12.94C171.54 12.94 169.38 15.5 169.38 18.68Z" fill="#D92D27"/>
<path d="M129.68 36.43C129.13 36.34 128.58 36.3 128.04 36.19C125.94 35.76 123.96 35 122.13 33.88C121.69 33.61 121.26 33.32 120.83 33C120.92 32.95 120.96 33 121.01 33.02C122.38 33.82 123.88 34.19 125.43 34.4C126.23 34.51 127.04 34.55 127.85 34.54C129.11 34.54 130.37 34.44 131.63 34.27C134.57 33.86 137.43 33.15 140.23 32.19C141.98 31.59 143.71 30.95 145.32 30.04C145.45 29.97 145.58 29.88 145.79 29.77C145.59 30.14 145.34 30.37 145.11 30.61C144.04 31.77 142.85 32.8 141.51 33.64C140.61 34.2 139.63 34.59 138.64 34.95C136.65 35.67 134.6 36.15 132.49 36.36C132.3 36.38 132.11 36.34 131.92 36.42H129.68V36.43Z" fill="#D92D27"/>
<path d="M121.24 3.47C120.76 3.8 120.32 4.11 119.91 4.46C118.6 5.57 117.48 6.84 116.85 8.47C116.52 9.32 116.41 10.2 116.85 11.06C117.15 11.64 117.64 12.03 118.2 12.33C119.16 12.84 120.2 13.05 121.26 13.17C122.2 13.28 123.15 13.31 124.09 13.28C126.18 13.21 128.23 12.92 130.27 12.48C134.5 11.57 138.56 10.14 142.55 8.49C143.56 8.07 144.56 7.63 145.56 7.21C145.73 7.14 146 7.03 146 7.03C146 7.03 146.3 7.38 146.47 7.63C147.12 8.58 147.6 9.45 148.09 10.5C148.53 11.45 148.89 12.32 149.18 13.32C149.2 13.39 149.23 13.52 149.23 13.52C149.23 13.52 149.13 13.56 149.05 13.59C145.84 14.91 142.61 16.2 139.3 17.24C135.75 18.35 132.16 19.24 128.47 19.72C126.91 19.93 125.35 20.05 123.77 20.08C122.26 20.11 120.75 20.06 119.27 19.79C117.92 19.55 116.64 19.14 115.55 18.27C114.53 17.45 114.01 16.37 113.94 15.06C113.87 13.61 114.32 12.28 114.89 10.98C115.92 8.61 117.4 6.56 119.3 4.81C119.8 4.35 120.06 4.19 120.73 3.73C120.81 3.68 121.08 3.53 121.23 3.47H121.24Z" fill="#D92D27"/>
<path d="M113.62 19.86C113.79 20.32 113.94 20.78 114.19 21.21C114.8 22.25 115.68 22.98 116.73 23.54C118.11 24.28 119.61 24.64 121.15 24.87C122.66 25.09 124.17 25.15 125.69 25.09C127.9 25 130.09 24.73 132.26 24.32C135.09 23.78 137.86 23.05 140.6 22.16C143.68 21.17 146.7 19.99 149.66 18.68C149.74 18.64 149.83 18.57 149.91 18.63C150 18.69 149.93 18.8 149.91 18.89C149.84 19.72 149.75 20.55 149.57 21.37C149.3 22.58 148.93 23.76 148.44 24.9C148.36 25.08 148.21 25.18 148.05 25.26C146.46 26.15 144.77 26.83 143.06 27.46C140.69 28.33 138.27 29.07 135.81 29.66C133.61 30.19 131.38 30.59 129.13 30.82C128.05 30.93 126.97 31 125.89 30.98C124.1 30.95 122.32 30.8 120.59 30.25C119.32 29.84 118.16 29.25 117.16 28.35C116.55 27.8 116.1 27.13 115.73 26.41C114.75 24.53 113.99 22.57 113.68 20.46C113.67 20.39 113.66 20.32 113.65 20.24C113.63 20.12 113.62 19.99 113.61 19.87L113.62 19.86Z" fill="#D92D27"/>
<path d="M123.22 2.92C123.08 3.12 122.96 3.25 122.88 3.41C122.66 3.81 122.79 4.14 123.22 4.3C123.55 4.43 123.9 4.44 124.24 4.43C125.97 4.35 127.63 3.91 129.28 3.41C131.31 2.8 133.3 2.07 135.19 1.1C135.37 1.01 135.55 0.89 135.72 0.79C135.94 0.66 136.09 0.57 136.09 0.57C136.09 0.57 136.4 0.64 136.57 0.69C138.51 1.26 140.33 2.09 142 3.24C142.14 3.33 142.29 3.44 142.29 3.44C142.29 3.44 142.12 3.52 141.96 3.59C139.42 4.78 136.84 5.85 134.19 6.76C132.01 7.51 129.8 8.14 127.53 8.53C126.24 8.75 124.94 8.9 123.63 8.88C122.72 8.87 121.81 8.79 120.95 8.48C120.55 8.34 120.18 8.14 119.89 7.83C119.46 7.36 119.37 6.81 119.56 6.2C119.77 5.51 120.2 4.96 120.71 4.47C121.39 3.81 122.18 3.31 123.06 2.96C123.09 2.95 123.13 2.94 123.23 2.92H123.22Z" fill="#D92D27"/>
</g>
<defs>
<clipPath id="clip0_1_9230">
<rect width="184.58" height="35.86" fill="white" transform="translate(0 0.57)"/>
</clipPath>
</defs>
</svg>
