<svg width="21" height="21" viewBox="0 0 21 21" fill="none" xmlns="http://www.w3.org/2000/svg">
<path d="M4.00928 13.833L7.83094 10.0113C8.14349 9.69889 8.56734 9.52336 9.00928 9.52336C9.45122 9.52336 9.87506 9.69889 10.1876 10.0113L14.0093 13.833M12.3426 12.1663L13.6643 10.8447C13.9768 10.5322 14.4007 10.3567 14.8426 10.3567C15.2845 10.3567 15.7084 10.5322 16.0209 10.8447L17.3426 12.1663M12.3426 7.16634H12.3509M5.67594 17.1663H15.6759C16.118 17.1663 16.5419 16.9907 16.8545 16.6782C17.167 16.3656 17.3426 15.9417 17.3426 15.4997V5.49967C17.3426 5.05765 17.167 4.63372 16.8545 4.32116C16.5419 4.0086 16.118 3.83301 15.6759 3.83301H5.67594C5.23392 3.83301 4.80999 4.0086 4.49743 4.32116C4.18487 4.63372 4.00928 5.05765 4.00928 5.49967V15.4997C4.00928 15.9417 4.18487 16.3656 4.49743 16.6782C4.80999 16.9907 5.23392 17.1663 5.67594 17.1663Z" stroke="#636B74" stroke-width="1.5" stroke-linecap="round" stroke-linejoin="round"/>
</svg>
