<svg width="20" height="20" viewBox="0 0 20 20" fill="none" xmlns="http://www.w3.org/2000/svg">
<path d="M9.39919 4.97351L11.4033 6.97759C11.721 7.29531 12.2342 7.29531 12.5519 6.97759C12.8697 6.65987 12.8697 6.14663 12.5519 5.82891L9.96945 3.23828C9.89409 3.16275 9.80457 3.10282 9.70602 3.06193C9.60746 3.02105 9.50181 3 9.39511 3C9.28842 3 9.18277 3.02105 9.08421 3.06193C8.98566 3.10282 8.89614 3.16275 8.82078 3.23828L6.23829 5.82891C5.92057 6.14663 5.92057 6.65987 6.23829 6.97759C6.55601 7.29531 7.06925 7.29531 7.38697 6.97759L9.39919 4.97351ZM9.39919 15.0265L7.39511 13.0224C7.31975 12.9469 7.23023 12.8869 7.13168 12.8461C7.03312 12.8052 6.92747 12.7841 6.82077 12.7841C6.71408 12.7841 6.60843 12.8052 6.50987 12.8461C6.41132 12.8869 6.3218 12.9469 6.24644 13.0224C5.92872 13.3401 5.92872 13.8534 6.24644 14.1711L8.82892 16.7617C9.14664 17.0794 9.65988 17.0794 9.9776 16.7617L12.5601 14.1792C12.8778 13.8615 12.8778 13.3483 12.5601 13.0305C12.4847 12.955 12.3952 12.8951 12.2967 12.8542C12.1981 12.8133 12.0924 12.7923 11.9857 12.7923C11.8791 12.7923 11.7734 12.8133 11.6748 12.8542C11.5763 12.8951 11.4868 12.955 11.4114 13.0305L9.39919 15.0265Z" fill="#171A1C"/>
</svg>
