<svg width="359" height="279" viewBox="0 0 359 279" fill="none" xmlns="http://www.w3.org/2000/svg">
<rect x="0.5" y="0.5" width="358" height="277.225" rx="7.5" fill="#E9E9E9"/>
<rect x="0.5" y="0.5" width="358" height="277.225" rx="7.5" stroke="#E0E0E0"/>
<rect x="243.305" y="12.5" width="108" height="27" rx="3.5" fill="white"/>
<rect x="243.305" y="12.5" width="108" height="27" rx="3.5" stroke="#D8D8D8"/>
<path d="M259.604 22.7273H260.935L263.251 28.3807H263.336L265.651 22.7273H266.983V30H265.939V24.7372H265.871L263.727 29.9893H262.86L260.715 24.7337H260.648V30H259.604V22.7273ZM270.08 30.1207C269.735 30.1207 269.422 30.0568 269.143 29.929C268.864 29.7988 268.642 29.6106 268.479 29.3643C268.318 29.1181 268.237 28.8163 268.237 28.4588C268.237 28.151 268.297 27.8977 268.415 27.6989C268.533 27.5 268.693 27.3426 268.894 27.2266C269.096 27.1106 269.32 27.023 269.569 26.9638C269.818 26.9046 270.071 26.8596 270.329 26.8288C270.656 26.791 270.921 26.7602 271.124 26.7365C271.328 26.7105 271.476 26.669 271.568 26.6122C271.661 26.5554 271.707 26.4631 271.707 26.3352V26.3104C271.707 26.0002 271.619 25.7599 271.444 25.5895C271.271 25.419 271.013 25.3338 270.67 25.3338C270.312 25.3338 270.031 25.4131 269.825 25.5717C269.621 25.728 269.48 25.902 269.402 26.0938L268.404 25.8665C268.523 25.535 268.695 25.2675 268.923 25.0639C269.152 24.858 269.416 24.7088 269.715 24.6165C270.013 24.5218 270.327 24.4744 270.656 24.4744C270.874 24.4744 271.104 24.5005 271.348 24.5526C271.594 24.6023 271.824 24.6946 272.037 24.8295C272.253 24.9645 272.429 25.1574 272.566 25.4084C272.704 25.657 272.772 25.9801 272.772 26.3778V30H271.735V29.2543H271.693C271.624 29.3916 271.521 29.5265 271.384 29.6591C271.246 29.7917 271.07 29.9018 270.855 29.9893C270.639 30.0769 270.381 30.1207 270.08 30.1207ZM270.311 29.2685C270.605 29.2685 270.856 29.2105 271.064 29.0945C271.275 28.9785 271.435 28.8269 271.544 28.6399C271.655 28.4505 271.71 28.2481 271.71 28.0327V27.3295C271.673 27.3674 271.599 27.4029 271.49 27.4361C271.384 27.4669 271.262 27.4941 271.124 27.5178C270.987 27.5391 270.853 27.5592 270.723 27.5781C270.593 27.5947 270.484 27.6089 270.396 27.6207C270.191 27.6468 270.002 27.6906 269.832 27.7521C269.664 27.8137 269.529 27.9025 269.427 28.0185C269.328 28.1321 269.278 28.2836 269.278 28.473C269.278 28.7358 269.375 28.9347 269.569 29.0696C269.763 29.2022 270.011 29.2685 270.311 29.2685ZM274.186 30V24.5455H275.248V30H274.186ZM274.723 23.7038C274.538 23.7038 274.379 23.6423 274.247 23.5192C274.117 23.3937 274.051 23.2446 274.051 23.0717C274.051 22.8965 274.117 22.7474 274.247 22.6243C274.379 22.4988 274.538 22.4361 274.723 22.4361C274.907 22.4361 275.065 22.4988 275.195 22.6243C275.328 22.7474 275.394 22.8965 275.394 23.0717C275.394 23.2446 275.328 23.3937 275.195 23.5192C275.065 23.6423 274.907 23.7038 274.723 23.7038ZM277.738 26.7614V30H276.677V24.5455H277.696V25.4332H277.763C277.889 25.1444 278.085 24.9124 278.353 24.7372C278.623 24.562 278.962 24.4744 279.372 24.4744C279.744 24.4744 280.069 24.5526 280.349 24.7088C280.628 24.8627 280.845 25.0923 280.998 25.3977C281.152 25.7031 281.229 26.0807 281.229 26.5305V30H280.167V26.6584C280.167 26.263 280.064 25.9541 279.858 25.7315C279.653 25.5066 279.37 25.3942 279.01 25.3942C278.764 25.3942 278.545 25.4474 278.353 25.554C278.163 25.6605 278.013 25.8168 277.902 26.0227C277.793 26.2263 277.738 26.4725 277.738 26.7614ZM285.026 23.6719V22.7273H290.655V23.6719H288.386V30H287.292V23.6719H285.026ZM292.875 26.7614V30H291.813V22.7273H292.861V25.4332H292.928C293.056 25.1397 293.252 24.9065 293.514 24.7337C293.777 24.5608 294.12 24.4744 294.544 24.4744C294.918 24.4744 295.245 24.5514 295.524 24.7053C295.806 24.8591 296.024 25.0888 296.178 25.3942C296.334 25.6972 296.412 26.076 296.412 26.5305V30H295.35V26.6584C295.35 26.2583 295.247 25.9482 295.041 25.728C294.835 25.5054 294.549 25.3942 294.182 25.3942C293.931 25.3942 293.706 25.4474 293.507 25.554C293.311 25.6605 293.156 25.8168 293.042 26.0227C292.931 26.2263 292.875 26.4725 292.875 26.7614ZM301.284 27.7379V24.5455H302.35V30H301.306V29.0554H301.249C301.123 29.3466 300.922 29.5893 300.645 29.7834C300.37 29.9751 300.028 30.071 299.619 30.071C299.268 30.071 298.958 29.9941 298.688 29.8402C298.421 29.6839 298.21 29.4531 298.056 29.1477C297.905 28.8423 297.829 28.4647 297.829 28.0149V24.5455H298.891V27.8871C298.891 28.2588 298.994 28.5547 299.2 28.7749C299.406 28.995 299.673 29.1051 300.002 29.1051C300.201 29.1051 300.399 29.0554 300.595 28.956C300.794 28.8565 300.959 28.7062 301.089 28.505C301.222 28.3037 301.287 28.0481 301.284 27.7379ZM303.776 30V24.5455H304.795V25.4332H304.863C304.977 25.1326 305.162 24.8982 305.42 24.7301C305.679 24.5597 305.987 24.4744 306.347 24.4744C306.712 24.4744 307.017 24.5597 307.263 24.7301C307.512 24.9006 307.696 25.1349 307.814 25.4332H307.871C308.001 25.142 308.208 24.91 308.492 24.7372C308.776 24.562 309.115 24.4744 309.508 24.4744C310.003 24.4744 310.406 24.6295 310.719 24.9396C311.034 25.2498 311.191 25.7173 311.191 26.3423V30H310.129V26.4418C310.129 26.0724 310.029 25.8049 309.827 25.6392C309.626 25.4735 309.386 25.3906 309.107 25.3906C308.761 25.3906 308.492 25.4972 308.3 25.7102C308.109 25.9209 308.013 26.192 308.013 26.5234V30H306.955V26.3743C306.955 26.0784 306.862 25.8404 306.678 25.6605C306.493 25.4806 306.253 25.3906 305.957 25.3906C305.755 25.3906 305.57 25.4439 305.399 25.5504C305.231 25.6546 305.095 25.8002 304.991 25.9872C304.889 26.1742 304.838 26.3909 304.838 26.6371V30H303.776ZM312.699 30V22.7273H313.761V25.4297H313.825C313.887 25.3161 313.975 25.1847 314.091 25.0355C314.207 24.8864 314.368 24.7562 314.574 24.6449C314.78 24.5312 315.053 24.4744 315.391 24.4744C315.831 24.4744 316.224 24.5857 316.57 24.8082C316.916 25.0308 317.187 25.3516 317.383 25.7706C317.582 26.1896 317.682 26.6939 317.682 27.2834C317.682 27.8729 317.583 28.3783 317.387 28.7997C317.19 29.2187 316.921 29.5419 316.577 29.7692C316.234 29.9941 315.842 30.1065 315.402 30.1065C315.07 30.1065 314.799 30.0509 314.589 29.9396C314.38 29.8284 314.217 29.6982 314.099 29.549C313.98 29.3999 313.889 29.2673 313.825 29.1513H313.736V30H312.699ZM313.74 27.2727C313.74 27.6562 313.796 27.9924 313.907 28.2812C314.018 28.5701 314.179 28.7962 314.39 28.9595C314.6 29.1205 314.858 29.201 315.164 29.201C315.481 29.201 315.746 29.117 315.959 28.9489C316.172 28.7784 316.333 28.5476 316.442 28.2564C316.554 27.9652 316.609 27.6373 316.609 27.2727C316.609 26.9129 316.555 26.5897 316.446 26.3033C316.339 26.0168 316.178 25.7907 315.963 25.625C315.75 25.4593 315.483 25.3764 315.164 25.3764C314.856 25.3764 314.596 25.4557 314.383 25.6143C314.172 25.773 314.012 25.9943 313.903 26.2784C313.794 26.5625 313.74 26.8939 313.74 27.2727ZM319.936 26.7614V30H318.874V24.5455H319.893V25.4332H319.961C320.086 25.1444 320.283 24.9124 320.55 24.7372C320.82 24.562 321.16 24.4744 321.569 24.4744C321.941 24.4744 322.266 24.5526 322.546 24.7088C322.825 24.8627 323.042 25.0923 323.196 25.3977C323.35 25.7031 323.426 26.0807 323.426 26.5305V30H322.365V26.6584C322.365 26.263 322.262 25.9541 322.056 25.7315C321.85 25.5066 321.567 25.3942 321.207 25.3942C320.961 25.3942 320.742 25.4474 320.55 25.554C320.361 25.6605 320.21 25.8168 320.099 26.0227C319.99 26.2263 319.936 26.4725 319.936 26.7614ZM326.438 30.1207C326.092 30.1207 325.78 30.0568 325.5 29.929C325.221 29.7988 325 29.6106 324.836 29.3643C324.675 29.1181 324.595 28.8163 324.595 28.4588C324.595 28.151 324.654 27.8977 324.772 27.6989C324.891 27.5 325.051 27.3426 325.252 27.2266C325.453 27.1106 325.678 27.023 325.926 26.9638C326.175 26.9046 326.428 26.8596 326.686 26.8288C327.013 26.791 327.278 26.7602 327.482 26.7365C327.685 26.7105 327.833 26.669 327.926 26.6122C328.018 26.5554 328.064 26.4631 328.064 26.3352V26.3104C328.064 26.0002 327.977 25.7599 327.801 25.5895C327.629 25.419 327.371 25.3338 327.027 25.3338C326.67 25.3338 326.388 25.4131 326.182 25.5717C325.979 25.728 325.838 25.902 325.76 26.0938L324.762 25.8665C324.88 25.535 325.053 25.2675 325.28 25.0639C325.51 24.858 325.774 24.7088 326.072 24.6165C326.37 24.5218 326.684 24.4744 327.013 24.4744C327.231 24.4744 327.462 24.5005 327.706 24.5526C327.952 24.6023 328.181 24.6946 328.395 24.8295C328.61 24.9645 328.786 25.1574 328.924 25.4084C329.061 25.657 329.13 25.9801 329.13 26.3778V30H328.093V29.2543H328.05C327.981 29.3916 327.878 29.5265 327.741 29.6591C327.604 29.7917 327.427 29.9018 327.212 29.9893C326.997 30.0769 326.739 30.1207 326.438 30.1207ZM326.669 29.2685C326.962 29.2685 327.213 29.2105 327.422 29.0945C327.632 28.9785 327.792 28.8269 327.901 28.6399C328.012 28.4505 328.068 28.2481 328.068 28.0327V27.3295C328.03 27.3674 327.957 27.4029 327.848 27.4361C327.741 27.4669 327.619 27.4941 327.482 27.5178C327.345 27.5391 327.211 27.5592 327.081 27.5781C326.95 27.5947 326.842 27.6089 326.754 27.6207C326.548 27.6468 326.36 27.6906 326.189 27.7521C326.021 27.8137 325.886 27.9025 325.784 28.0185C325.685 28.1321 325.635 28.2836 325.635 28.473C325.635 28.7358 325.732 28.9347 325.926 29.0696C326.121 29.2022 326.368 29.2685 326.669 29.2685ZM330.544 30V24.5455H331.606V30H330.544ZM331.08 23.7038C330.895 23.7038 330.737 23.6423 330.604 23.5192C330.474 23.3937 330.409 23.2446 330.409 23.0717C330.409 22.8965 330.474 22.7474 330.604 22.6243C330.737 22.4988 330.895 22.4361 331.08 22.4361C331.265 22.4361 331.422 22.4988 331.552 22.6243C331.685 22.7474 331.751 22.8965 331.751 23.0717C331.751 23.2446 331.685 23.3937 331.552 23.5192C331.422 23.6423 331.265 23.7038 331.08 23.7038ZM334.096 22.7273V30H333.034V22.7273H334.096Z" fill="#3C3C3C"/>
<g opacity="0.3">
<path d="M189.485 143.96L186.355 136.65C185.295 134.17 183.345 134.07 182.035 136.43L180.145 139.84C179.185 141.57 177.395 141.72 176.155 140.17L175.935 139.89C174.645 138.27 172.825 138.47 171.895 140.32L170.175 143.77C168.965 146.17 170.715 149 173.395 149H186.155C188.755 149 190.505 146.35 189.485 143.96Z" stroke="#171717" stroke-width="1.5" stroke-linecap="round" stroke-linejoin="round"/>
<path d="M174.775 135C176.432 135 177.775 133.657 177.775 132C177.775 130.343 176.432 129 174.775 129C173.118 129 171.775 130.343 171.775 132C171.775 133.657 173.118 135 174.775 135Z" stroke="#171717" stroke-width="1.5" stroke-linecap="round" stroke-linejoin="round"/>
</g>
</svg>
